<svg
  width="1876"
  height="860"
  viewBox="0 0 1876 860"
  fill="none"
  xmlns="http://www.w3.org/2000/svg"
  role="img"
  aria-labelledby="title desc"
>
  <title id="title">MoonTV 波波的秘密基地</title>
  <desc id="desc">
    README hero artwork showing a private media dashboard across desktop and
    mobile.
  </desc>
  <defs>
    <linearGradient
      id="page"
      x1="0"
      y1="0"
      x2="1876"
      y2="860"
      gradientUnits="userSpaceOnUse"
    >
      <stop stop-color="#071321" />
      <stop offset="0.48" stop-color="#07111f" />
      <stop offset="1" stop-color="#04130f" />
    </linearGradient>
    <radialGradient
      id="glow"
      cx="0"
      cy="0"
      r="1"
      gradientUnits="userSpaceOnUse"
      gradientTransform="translate(1008 144) rotate(90) scale(360 520)"
    >
      <stop stop-color="#21d18d" stop-opacity="0.62" />
      <stop offset="0.58" stop-color="#21d18d" stop-opacity="0.2" />
      <stop offset="1" stop-color="#21d18d" stop-opacity="0" />
    </radialGradient>
    <linearGradient
      id="brand"
      x1="0"
      y1="0"
      x2="300"
      y2="120"
      gradientUnits="userSpaceOnUse"
    >
      <stop stop-color="#f8fafc" />
      <stop offset="0.48" stop-color="#f8fafc" />
      <stop offset="0.49" stop-color="#34d399" />
      <stop offset="1" stop-color="#22c55e" />
    </linearGradient>
    <linearGradient
      id="titleGradient"
      x1="46"
      y1="210"
      x2="500"
      y2="285"
      gradientUnits="userSpaceOnUse"
    >
      <stop stop-color="#67e8f9" />
      <stop offset="0.5" stop-color="#86efac" />
      <stop offset="1" stop-color="#f472b6" />
    </linearGradient>
    <linearGradient
      id="stroke"
      x1="696"
      y1="54"
      x2="1640"
      y2="650"
      gradientUnits="userSpaceOnUse"
    >
      <stop stop-color="#475569" />
      <stop offset="0.52" stop-color="#1f2937" />
      <stop offset="1" stop-color="#22c55e" />
    </linearGradient>
    <filter
      id="shadow"
      x="-10%"
      y="-12%"
      width="120%"
      height="130%"
      color-interpolation-filters="sRGB"
    >
      <feDropShadow
        dx="0"
        dy="22"
        stdDeviation="24"
        flood-color="#000000"
        flood-opacity="0.42"
      />
    </filter>
    <filter
      id="neon"
      x="-40%"
      y="-40%"
      width="180%"
      height="180%"
      color-interpolation-filters="sRGB"
    >
      <feGaussianBlur stdDeviation="8" result="blur" />
      <feColorMatrix
        in="blur"
        type="matrix"
        values="0 0 0 0 0.16 0 0 0 0 0.95 0 0 0 0 0.62 0 0 0 0.55 0"
      />
      <feBlend in="SourceGraphic" />
    </filter>
  </defs>

  <rect width="1876" height="860" fill="url(#page)" />
  <rect width="1876" height="860" fill="url(#glow)" />
  <path
    d="M716 0H1294C1375 75 1398 164 1364 266C1321 398 1220 404 1200 522C1186 601 1220 667 1288 720H650C590 639 580 560 620 482C681 363 767 380 792 270C814 174 760 77 716 0Z"
    fill="#10b981"
    opacity="0.42"
  />

  <g transform="translate(50 48)">
    <rect
      x="0"
      y="0"
      width="126"
      height="126"
      rx="28"
      fill="#101c2d"
      stroke="#24415c"
      stroke-width="2"
    />
    <path
      d="M48 31L93 58C99 62 99 71 93 75L48 102C41 106 32 101 32 93V40C32 32 41 27 48 31Z"
      stroke="#8bff9a"
      stroke-width="6"
      stroke-linejoin="round"
    />
    <path
      d="M48 31L93 58C99 62 99 71 93 75L48 102C41 106 32 101 32 93V40C32 32 41 27 48 31Z"
      stroke="#f472b6"
      stroke-width="3"
      stroke-linejoin="round"
      opacity="0.7"
    />
  </g>

  <text
    x="212"
    y="118"
    fill="url(#brand)"
    font-family="Inter, ui-sans-serif, system-ui, -apple-system, Segoe UI, sans-serif"
    font-size="76"
    font-weight="850"
    letter-spacing="0"
  >
    MoonTV
  </text>
  <text
    x="214"
    y="158"
    fill="#94a3b8"
    font-family="Inter, ui-sans-serif, system-ui, -apple-system, Segoe UI, sans-serif"
    font-size="22"
    font-weight="500"
    letter-spacing="0"
  >
    私人影音中控台 · 多源搜尋 · 豆瓣短評 · 成人授權卡
  </text>
  <text
    x="50"
    y="266"
    fill="url(#titleGradient)"
    font-family="Inter, ui-sans-serif, system-ui, -apple-system, Segoe UI, sans-serif"
    font-size="56"
    font-weight="850"
    letter-spacing="0"
  >
    波波的秘密基地
  </text>
  <text
    x="50"
    y="320"
    fill="#cbd5e1"
    font-family="Inter, ui-sans-serif, system-ui, -apple-system, Segoe UI, sans-serif"
    font-size="28"
    font-weight="520"
    letter-spacing="0"
  >
    一站式管理你的所有影音內容
  </text>

  <g transform="translate(50 348)">
    <rect width="606" height="58" rx="29" fill="#0f1b2a" stroke="#24384d" />
    <circle cx="36" cy="29" r="13" fill="#0b2a20" />
    <path
      d="M28 29H44M36 21V37"
      stroke="#34d399"
      stroke-width="4"
      stroke-linecap="round"
    />
    <text
      x="66"
      y="37"
      fill="#f8fafc"
      font-family="Inter, ui-sans-serif, system-ui"
      font-size="22"
      font-weight="750"
    >
      多源搜尋
    </text>
    <text
      x="320"
      y="37"
      fill="#a8b3c4"
      font-family="Inter, ui-sans-serif, system-ui"
      font-size="18"
      font-weight="520"
    >
      快速找到想看的內容
    </text>
  </g>
  <g transform="translate(50 412)">
    <rect width="606" height="58" rx="29" fill="#0f1b2a" stroke="#24384d" />
    <rect
      x="25"
      y="18"
      width="22"
      height="22"
      rx="5"
      fill="#0b2334"
      stroke="#38bdf8"
      stroke-width="3"
    />
    <path
      d="M31 24H41M31 30H41M31 36H38"
      stroke="#38bdf8"
      stroke-width="2"
      stroke-linecap="round"
    />
    <text
      x="66"
      y="37"
      fill="#f8fafc"
      font-family="Inter, ui-sans-serif, system-ui"
      font-size="22"
      font-weight="750"
    >
      豆瓣短評
    </text>
    <text
      x="320"
      y="37"
      fill="#a8b3c4"
      font-family="Inter, ui-sans-serif, system-ui"
      font-size="18"
      font-weight="520"
    >
      看評分與短評再決定
    </text>
  </g>
  <g transform="translate(50 476)">
    <rect width="606" height="58" rx="29" fill="#0f1b2a" stroke="#24384d" />
    <path
      d="M28 43V31C28 24 34 18 41 18C48 18 54 24 54 31V43"
      stroke="#f472b6"
      stroke-width="4"
      stroke-linecap="round"
    />
    <rect
      x="22"
      y="40"
      width="38"
      height="26"
      rx="7"
      fill="#331529"
      stroke="#f472b6"
      stroke-width="3"
    />
    <text
      x="66"
      y="37"
      fill="#f8fafc"
      font-family="Inter, ui-sans-serif, system-ui"
      font-size="22"
      font-weight="750"
    >
      成人授權卡
    </text>
    <rect
      x="226"
      y="18"
      width="83"
      height="28"
      rx="14"
      fill="#3b1730"
      stroke="#8b285d"
    />
    <text
      x="242"
      y="38"
      fill="#f9a8d4"
      font-family="Inter, ui-sans-serif, system-ui"
      font-size="15"
      font-weight="800"
    >
      Age Gate
    </text>
    <text
      x="320"
      y="37"
      fill="#a8b3c4"
      font-family="Inter, ui-sans-serif, system-ui"
      font-size="18"
      font-weight="520"
    >
      保護隱私與分級觀看
    </text>
  </g>
  <g transform="translate(50 540)">
    <rect width="606" height="58" rx="29" fill="#0f1b2a" stroke="#24384d" />
    <path d="M24 24H54V44H24V24Z" stroke="#22d3ee" stroke-width="4" />
    <path
      d="M35 50H43"
      stroke="#22d3ee"
      stroke-width="4"
      stroke-linecap="round"
    />
    <text
      x="66"
      y="37"
      fill="#f8fafc"
      font-family="Inter, ui-sans-serif, system-ui"
      font-size="22"
      font-weight="750"
    >
      跨平台同步
    </text>
    <text
      x="320"
      y="37"
      fill="#a8b3c4"
      font-family="Inter, ui-sans-serif, system-ui"
      font-size="18"
      font-weight="520"
    >
      手機、平板、電視都能接
    </text>
  </g>

  <g transform="translate(50 612)">
    <rect width="190" height="58" rx="18" fill="#0d1a29" stroke="#29425a" />
    <path d="M24 17L47 17L67 51H9L24 17Z" fill="#ffffff" />
    <text
      x="84"
      y="37"
      fill="#f8fafc"
      font-family="Inter, ui-sans-serif, system-ui"
      font-size="18"
      font-weight="760"
    >
      Vercel
    </text>
    <rect x="134" y="16" width="44" height="26" rx="9" fill="#043d2b" />
    <text
      x="145"
      y="35"
      fill="#34d399"
      font-family="Inter, ui-sans-serif, system-ui"
      font-size="14"
      font-weight="760"
    >
      Live
    </text>
  </g>
  <g transform="translate(258 612)">
    <rect width="214" height="58" rx="18" fill="#0d1a29" stroke="#29425a" />
    <path d="M26 30L43 15L61 30L43 45L26 30Z" fill="#34d399" />
    <text
      x="78"
      y="37"
      fill="#f8fafc"
      font-family="Inter, ui-sans-serif, system-ui"
      font-size="18"
      font-weight="760"
    >
      Supabase
    </text>
    <rect x="150" y="16" width="52" height="26" rx="9" fill="#043d2b" />
    <text
      x="160"
      y="35"
      fill="#34d399"
      font-family="Inter, ui-sans-serif, system-ui"
      font-size="14"
      font-weight="760"
    >
      Ready
    </text>
  </g>
  <g transform="translate(490 612)">
    <rect width="166" height="58" rx="18" fill="#0d1a29" stroke="#29425a" />
    <path
      d="M28 34H61C58 45 50 50 40 50C30 50 23 44 21 35L28 34Z"
      fill="#38bdf8"
    />
    <rect x="28" y="21" width="8" height="8" fill="#38bdf8" />
    <rect x="39" y="21" width="8" height="8" fill="#38bdf8" />
    <rect x="50" y="21" width="8" height="8" fill="#38bdf8" />
    <text
      x="78"
      y="37"
      fill="#f8fafc"
      font-family="Inter, ui-sans-serif, system-ui"
      font-size="18"
      font-weight="760"
    >
      Docker
    </text>
  </g>

  <g transform="translate(698 56)" filter="url(#shadow)">
    <rect
      width="928"
      height="590"
      rx="16"
      fill="#0b1220"
      stroke="url(#stroke)"
      stroke-width="5"
    />
    <rect x="12" y="12" width="904" height="566" rx="12" fill="#070d16" />
    <rect
      x="170"
      y="36"
      width="546"
      height="40"
      rx="10"
      fill="#0f172a"
      stroke="#1f2937"
    />
    <path
      d="M202 57C202 64 196 70 189 70C182 70 176 64 176 57C176 50 182 44 189 44C196 44 202 50 202 57Z"
      stroke="#94a3b8"
      stroke-width="2"
    />
    <path
      d="M198 66L207 74"
      stroke="#94a3b8"
      stroke-width="2"
      stroke-linecap="round"
    />
    <text
      x="222"
      y="64"
      fill="#7d8999"
      font-family="Inter, ui-sans-serif, system-ui"
      font-size="15"
      font-weight="520"
    >
      搜尋電影、影集、演員...
    </text>
    <rect
      x="748"
      y="36"
      width="39"
      height="40"
      rx="10"
      fill="#111827"
      stroke="#1f2937"
    />
    <rect
      x="802"
      y="36"
      width="39"
      height="40"
      rx="10"
      fill="#111827"
      stroke="#1f2937"
    />
    <rect
      x="856"
      y="36"
      width="39"
      height="40"
      rx="10"
      fill="#111827"
      stroke="#1f2937"
    />

    <rect x="24" y="36" width="134" height="40" rx="12" fill="#0f172a" />
    <rect
      x="34"
      y="45"
      width="30"
      height="24"
      rx="8"
      fill="#13251f"
      stroke="#22c55e"
    />
    <path
      d="M46 51L58 57L46 64V51Z"
      stroke="#a7f3d0"
      stroke-width="2"
      stroke-linejoin="round"
    />
    <text
      x="72"
      y="63"
      fill="#f8fafc"
      font-family="Inter, ui-sans-serif, system-ui"
      font-size="18"
      font-weight="780"
    >
      Moon
    </text>
    <text
      x="124"
      y="63"
      fill="#4ade80"
      font-family="Inter, ui-sans-serif, system-ui"
      font-size="18"
      font-weight="780"
    >
      TV
    </text>

    <g transform="translate(22 114)">
      <rect width="134" height="40" rx="9" fill="#116936" />
      <path d="M21 25V17L31 10L41 17V25H35V19H27V25H21Z" fill="#dcfce7" />
      <text
        x="58"
        y="26"
        fill="#f8fafc"
        font-family="Inter, ui-sans-serif, system-ui"
        font-size="17"
        font-weight="760"
      >
        首頁
      </text>
    </g>
    <g
      fill="#94a3b8"
      font-family="Inter, ui-sans-serif, system-ui"
      font-size="16"
      font-weight="650"
    >
      <text x="58" y="202">搜尋</text>
      <text x="58" y="250">電影</text>
      <text x="58" y="298">影集</text>
      <text x="58" y="346">追蹤清單</text>
      <text x="58" y="394">歷史紀錄</text>
      <text x="58" y="442">設定</text>
    </g>
    <g stroke="#94a3b8" stroke-width="2" opacity="0.82">
      <circle cx="41" cy="196" r="8" />
      <path d="M47 202L54 209" stroke-linecap="round" />
      <rect x="32" y="238" width="18" height="18" rx="3" />
      <path d="M32 286H50M32 294H50M36 278V302M46 278V302" />
      <path d="M32 334L41 327L50 334V352H32V334Z" />
      <circle cx="41" cy="391" r="10" />
      <path d="M41 383V392L48 396" stroke-linecap="round" />
      <path
        d="M41 431L44 438L52 439L46 444L48 452L41 448L34 452L36 444L30 439L38 438L41 431Z"
      />
    </g>

    <rect x="190" y="98" width="500" height="238" rx="12" fill="#111827" />
    <rect
      x="190"
      y="98"
      width="500"
      height="238"
      rx="12"
      fill="#1f6f53"
      opacity="0.26"
    />
    <path
      d="M190 278C278 236 340 242 414 202C502 154 572 130 690 162V336H190V278Z"
      fill="#1f2937"
      opacity="0.72"
    />
    <path
      d="M218 260C304 205 386 238 470 184C544 136 610 120 690 148"
      stroke="#86efac"
      stroke-opacity="0.34"
      stroke-width="30"
      stroke-linecap="round"
    />
    <rect x="220" y="256" width="72" height="36" rx="8" fill="#166534" />
    <path d="M242 266L258 274L242 283V266Z" fill="#dcfce7" />
    <text
      x="264"
      y="280"
      fill="#f8fafc"
      font-family="Inter, ui-sans-serif, system-ui"
      font-size="15"
      font-weight="760"
    >
      播放
    </text>
    <text
      x="220"
      y="178"
      fill="#f8fafc"
      font-family="Inter, ui-sans-serif, system-ui"
      font-size="30"
      font-weight="850"
    >
      機器人之夢
    </text>
    <text
      x="388"
      y="178"
      fill="#facc15"
      font-family="Inter, ui-sans-serif, system-ui"
      font-size="18"
      font-weight="850"
    >
      ★ 9.1
    </text>
    <text
      x="220"
      y="214"
      fill="#cbd5e1"
      font-family="Inter, ui-sans-serif, system-ui"
      font-size="18"
      font-weight="560"
    >
      動畫 · 劇情 · 科幻
    </text>
    <text
      x="220"
      y="246"
      fill="#94a3b8"
      font-family="Inter, ui-sans-serif, system-ui"
      font-size="16"
      font-weight="520"
    >
      關於友情、孤獨與成長的感人故事
    </text>

    <g transform="translate(710 98)">
      <rect width="194" height="238" rx="12" fill="#111827" stroke="#1f2937" />
      <text
        x="18"
        y="30"
        fill="#f8fafc"
        font-family="Inter, ui-sans-serif, system-ui"
        font-size="18"
        font-weight="780"
      >
        今日推薦
      </text>
      <g transform="translate(18 56)">
        <rect width="40" height="54" rx="6" fill="#164e63" />
        <text
          x="52"
          y="20"
          fill="#e5e7eb"
          font-family="Inter, ui-sans-serif, system-ui"
          font-size="15"
          font-weight="700"
        >
          全面啟動
        </text>
        <text
          x="52"
          y="44"
          fill="#facc15"
          font-family="Inter, ui-sans-serif, system-ui"
          font-size="13"
          font-weight="700"
        >
          ★ 8.8 · 2010
        </text>
      </g>
      <g transform="translate(18 124)">
        <rect width="40" height="54" rx="6" fill="#7f1d1d" />
        <text
          x="52"
          y="20"
          fill="#e5e7eb"
          font-family="Inter, ui-sans-serif, system-ui"
          font-size="15"
          font-weight="700"
        >
          神隱少女
        </text>
        <text
          x="52"
          y="44"
          fill="#facc15"
          font-family="Inter, ui-sans-serif, system-ui"
          font-size="13"
          font-weight="700"
        >
          ★ 9.4 · 2001
        </text>
      </g>
      <g transform="translate(18 192)">
        <rect width="40" height="32" rx="6" fill="#334155" />
        <text
          x="52"
          y="20"
          fill="#e5e7eb"
          font-family="Inter, ui-sans-serif, system-ui"
          font-size="15"
          font-weight="700"
        >
          星際效應
        </text>
      </g>
    </g>

    <text
      x="190"
      y="376"
      fill="#f8fafc"
      font-family="Inter, ui-sans-serif, system-ui"
      font-size="20"
      font-weight="780"
    >
      繼續觀看
    </text>
    <g transform="translate(190 398)">
      <g>
        <rect width="92" height="156" rx="10" fill="#7f1d1d" />
        <rect y="130" width="92" height="6" rx="3" fill="#22c55e" />
        <text
          x="10"
          y="176"
          fill="#f8fafc"
          font-family="Inter, ui-sans-serif, system-ui"
          font-size="13"
          font-weight="700"
        >
          沙丘：第二部
        </text>
      </g>
      <g transform="translate(104 0)">
        <rect width="92" height="156" rx="10" fill="#92400e" />
        <rect y="130" width="52" height="6" rx="3" fill="#22c55e" />
        <text
          x="10"
          y="176"
          fill="#f8fafc"
          font-family="Inter, ui-sans-serif, system-ui"
          font-size="13"
          font-weight="700"
        >
          奧本海默
        </text>
      </g>
      <g transform="translate(208 0)">
        <rect width="92" height="156" rx="10" fill="#4c1d95" />
        <rect y="130" width="78" height="6" rx="3" fill="#22c55e" />
        <text
          x="10"
          y="176"
          fill="#f8fafc"
          font-family="Inter, ui-sans-serif, system-ui"
          font-size="13"
          font-weight="700"
        >
          怪奇物語 S4
        </text>
      </g>
      <g transform="translate(312 0)">
        <rect width="92" height="156" rx="10" fill="#1e3a8a" />
        <rect y="130" width="66" height="6" rx="3" fill="#22c55e" />
        <text
          x="10"
          y="176"
          fill="#f8fafc"
          font-family="Inter, ui-sans-serif, system-ui"
          font-size="13"
          font-weight="700"
        >
          鈴芽之旅
        </text>
      </g>
      <g transform="translate(416 0)">
        <rect width="92" height="156" rx="10" fill="#7c2d12" />
        <rect y="130" width="28" height="6" rx="3" fill="#22c55e" />
        <text
          x="10"
          y="176"
          fill="#f8fafc"
          font-family="Inter, ui-sans-serif, system-ui"
          font-size="13"
          font-weight="700"
        >
          蜘蛛人
        </text>
      </g>
    </g>
  </g>

  <g transform="translate(1605 182)" filter="url(#shadow)">
    <rect
      width="214"
      height="476"
      rx="38"
      fill="#05070b"
      stroke="#1f2937"
      stroke-width="5"
    />
    <rect x="18" y="36" width="178" height="404" rx="22" fill="#0b1220" />
    <rect x="70" y="14" width="74" height="20" rx="10" fill="#05070b" />
    <text
      x="40"
      y="68"
      fill="#f8fafc"
      font-family="Inter, ui-sans-serif, system-ui"
      font-size="16"
      font-weight="780"
    >
      MoonTV
    </text>
    <circle cx="32" cy="62" r="10" fill="#13251f" stroke="#22c55e" />
    <path d="M29 56L37 62L29 68V56Z" stroke="#a7f3d0" stroke-width="1.5" />
    <rect x="34" y="88" width="150" height="116" rx="12" fill="#7c2d12" />
    <rect x="46" y="224" width="58" height="26" rx="8" fill="#166534" />
    <path d="M60 231L70 237L60 244V231Z" fill="#dcfce7" />
    <text
      x="74"
      y="242"
      fill="#f8fafc"
      font-family="Inter, ui-sans-serif, system-ui"
      font-size="13"
      font-weight="760"
    >
      播放
    </text>
    <text
      x="34"
      y="220"
      fill="#f8fafc"
      font-family="Inter, ui-sans-serif, system-ui"
      font-size="16"
      font-weight="800"
    >
      蜘蛛人：穿越宇宙
    </text>
    <text
      x="34"
      y="272"
      fill="#f8fafc"
      font-family="Inter, ui-sans-serif, system-ui"
      font-size="15"
      font-weight="780"
    >
      繼續觀看
    </text>
    <g transform="translate(34 288)">
      <rect width="42" height="70" rx="8" fill="#92400e" />
      <rect x="54" width="42" height="70" rx="8" fill="#7f1d1d" />
      <rect x="108" width="42" height="70" rx="8" fill="#4c1d95" />
    </g>
    <rect x="18" y="396" width="178" height="44" rx="0" fill="#060a11" />
    <circle cx="44" cy="418" r="7" fill="#22c55e" />
    <circle cx="84" cy="418" r="7" fill="#64748b" />
    <circle cx="126" cy="418" r="7" fill="#64748b" />
    <circle cx="168" cy="418" r="7" fill="#64748b" />
  </g>

  <g transform="translate(46 706)">
    <rect
      width="1784"
      height="102"
      rx="20"
      fill="#071a20"
      fill-opacity="0.72"
      stroke="#1f3a4d"
    />
    <g transform="translate(110 24)">
      <path d="M37 0L5 52H31L23 78L61 25H34L37 0Z" fill="#38bdf8" />
      <text
        x="82"
        y="34"
        fill="#86efac"
        font-family="Inter, ui-sans-serif, system-ui"
        font-size="24"
        font-weight="820"
      >
        快速安裝
      </text>
      <text
        x="82"
        y="66"
        fill="#a8b3c4"
        font-family="Inter, ui-sans-serif, system-ui"
        font-size="18"
        font-weight="520"
      >
        Vercel / Docker
      </text>
    </g>
    <g transform="translate(512 24)">
      <path
        d="M32 3L62 16V37C62 57 49 70 32 78C15 70 2 57 2 37V16L32 3Z"
        stroke="#67e8f9"
        stroke-width="5"
      />
      <text
        x="82"
        y="34"
        fill="#67e8f9"
        font-family="Inter, ui-sans-serif, system-ui"
        font-size="24"
        font-weight="820"
      >
        隱私至上
      </text>
      <text
        x="82"
        y="66"
        fill="#a8b3c4"
        font-family="Inter, ui-sans-serif, system-ui"
        font-size="18"
        font-weight="520"
      >
        不內建影片
      </text>
    </g>
    <g transform="translate(942 26)">
      <path d="M12 13H30V0H48V13H66V31H48V49H30V31H12V13Z" fill="#facc15" />
      <text
        x="82"
        y="32"
        fill="#86efac"
        font-family="Inter, ui-sans-serif, system-ui"
        font-size="24"
        font-weight="820"
      >
        高度可客製化
      </text>
      <text
        x="82"
        y="64"
        fill="#a8b3c4"
        font-family="Inter, ui-sans-serif, system-ui"
        font-size="18"
        font-weight="520"
      >
        片源、分類、授權
      </text>
    </g>
    <g transform="translate(1390 22)">
      <path
        d="M32 58C55 54 70 36 74 8C46 12 28 27 24 50L8 66L16 74L32 58Z"
        stroke="#f472b6"
        stroke-width="5"
        stroke-linejoin="round"
      />
      <circle cx="52" cy="30" r="7" fill="#f472b6" />
      <text
        x="92"
        y="36"
        fill="#f472b6"
        font-family="Inter, ui-sans-serif, system-ui"
        font-size="24"
        font-weight="820"
      >
        持續更新
      </text>
      <text
        x="92"
        y="68"
        fill="#a8b3c4"
        font-family="Inter, ui-sans-serif, system-ui"
        font-size="18"
        font-weight="520"
      >
        自己用，自己爽
      </text>
    </g>
  </g>
</svg>
